<svg width="164" height="164" viewBox="0 0 164 164" fill="none" xmlns="http://www.w3.org/2000/svg">
<path d="M37.6624 58.2714C37.6624 69.7738 42.0474 80.6772 50.0136 88.9733C56.375 95.6006 59.8888 104.384 59.9113 113.721H56.5736C54.7959 113.721 53.3513 115.165 53.3513 116.943V136.024C53.3513 137.802 54.7959 139.246 56.5736 139.246H64.3027V147.824C64.3027 149.064 65.3053 150.067 66.5449 150.067H97.4583C98.6979 150.067 99.7005 149.064 99.7005 147.824V139.246H107.43C109.207 139.246 110.652 137.802 110.652 136.024V133.618C110.652 132.379 109.649 131.376 108.41 131.376C107.17 131.376 106.168 132.379 106.168 133.618V134.762H97.4583H66.5449H57.8356V128.724H74.0627C75.3023 128.724 76.3049 127.722 76.3049 126.482C76.3049 125.242 75.3023 124.24 74.0627 124.24H57.8356V118.202H106.168V119.899C106.168 121.139 107.17 122.142 108.41 122.142C109.649 122.142 110.652 121.139 110.652 119.899V116.943C110.652 115.165 109.207 113.721 107.43 113.721H101.859C101.856 113.721 101.853 113.721 101.85 113.721H84.2422V84.0661L90.783 76.2601C91.9938 76.4715 93.2077 76.5772 94.4121 76.5772C99.8831 76.5772 105.155 74.4279 109.146 70.4368C114.352 65.2318 116.424 57.8486 114.681 50.6864C114.483 49.8728 113.845 49.2354 113.032 49.0368C105.873 47.3007 98.4897 49.3699 93.2846 54.575C88.355 59.5046 86.2377 66.3913 87.5062 73.1883L82 79.7547L76.4938 73.1851C77.7623 66.3849 75.645 59.5014 70.7154 54.5718C65.5103 49.3667 58.1303 47.2975 50.9681 49.0336C50.1513 49.2322 49.5171 49.8664 49.3185 50.6832C47.5792 57.8421 49.6484 65.2253 54.8535 70.4336C58.8446 74.4247 64.117 76.574 69.5879 76.574C70.7923 76.574 72.0031 76.4683 73.217 76.2569L79.7578 84.0629V113.717H64.3956C64.37 103.221 60.4142 93.3328 53.2488 85.8663C46.0898 78.4094 42.1467 68.6111 42.1467 58.2714C42.1467 47.5729 46.3268 37.5311 53.9182 29.9942C61.5064 22.4572 71.5738 18.354 82.2819 18.4213C103.406 18.5654 121.152 35.8495 121.834 56.9485C122.18 67.6854 118.314 77.8873 110.943 85.6677C105.729 91.1739 102.128 97.9229 100.533 105.181C100.267 106.392 101.033 107.587 102.244 107.853C103.451 108.118 104.649 107.353 104.915 106.142C106.334 99.6814 109.544 93.6659 114.201 88.7523C122.401 80.0943 126.703 68.7488 126.318 56.8043C125.947 45.3468 121.187 34.6035 112.917 26.5476C104.649 18.495 93.7811 14.017 82.3139 13.9369C70.4079 13.8632 59.2034 18.4277 50.7599 26.8135C42.3133 35.1993 37.6624 46.3718 37.6624 58.2714ZM95.2161 139.246V145.582H68.7871V139.246H95.2161ZM96.4557 57.7429C100.213 53.9856 105.415 52.3072 110.598 53.1175C111.411 58.3034 109.733 63.5053 105.975 67.2625C102.218 71.0198 97.0163 72.6982 91.8304 71.8847C91.02 66.702 92.6984 61.5001 96.4557 57.7429ZM58.0246 67.2625C54.2674 63.5053 52.5889 58.3034 53.4025 53.1175C58.5884 52.3072 63.787 53.9856 67.5443 57.7429C71.3016 61.5001 72.98 66.702 72.1696 71.8847C66.987 72.6982 61.7819 71.0198 58.0246 67.2625Z" fill="#7C6A0A"/>
<path d="M97.8874 31.4418C96.824 30.8076 95.4466 31.1535 94.8124 32.217C94.1782 33.2804 94.5242 34.6578 95.5876 35.292C95.7894 35.4137 95.988 35.5354 96.1866 35.6603C96.5581 35.8974 96.9745 36.0095 97.3845 36.0095C98.1277 36.0095 98.8548 35.6411 99.2808 34.9653C99.9438 33.9178 99.6331 32.5341 98.5857 31.871C98.3551 31.7269 98.1213 31.5828 97.8874 31.4418Z" fill="#7C6A0A"/>
<path d="M82.2146 27.0664H82C74.7096 27.0664 67.6083 29.6449 62.0125 34.3247C61.0611 35.1191 60.9362 36.5316 61.7306 37.483C62.1726 38.0147 62.81 38.287 63.4507 38.287C63.9567 38.287 64.4692 38.1172 64.8889 37.7648C69.6839 33.7577 75.7603 31.5508 81.9935 31.5508H82.1921C83.7681 31.5604 85.3472 31.7141 86.8879 31.9992C88.1051 32.2266 89.2775 31.4227 89.5049 30.2055C89.7323 28.9883 88.9283 27.8159 87.7111 27.5885C85.9078 27.2554 84.0596 27.0792 82.2146 27.0664Z" fill="#7C6A0A"/>
<path d="M110.479 126.703C110.424 126.565 110.354 126.437 110.274 126.315C110.191 126.19 110.098 126.078 109.995 125.972C109.89 125.87 109.777 125.777 109.652 125.694C109.531 125.614 109.403 125.543 109.265 125.489C109.13 125.431 108.989 125.389 108.845 125.361C108.118 125.213 107.343 125.454 106.824 125.972C106.718 126.078 106.626 126.19 106.545 126.315C106.462 126.437 106.395 126.565 106.337 126.703C106.283 126.837 106.238 126.978 106.209 127.122C106.18 127.267 106.167 127.414 106.167 127.558C106.167 128.151 106.405 128.727 106.824 129.144C107.241 129.563 107.817 129.8 108.41 129.8C108.554 129.8 108.701 129.787 108.845 129.759C108.989 129.73 109.13 129.685 109.265 129.63C109.403 129.573 109.531 129.506 109.652 129.422C109.777 129.342 109.89 129.249 109.995 129.144C110.412 128.727 110.652 128.151 110.652 127.558C110.652 127.414 110.636 127.267 110.607 127.122C110.578 126.978 110.537 126.837 110.479 126.703Z" fill="#7C6A0A"/>
<path d="M84.7449 124.24C83.5053 124.24 82.5027 125.242 82.5027 126.482C82.5027 127.721 83.5053 128.724 84.7449 128.724H87.6885C88.9282 128.724 89.9307 127.721 89.9307 126.482C89.9307 125.242 88.9282 124.24 87.6885 124.24H84.7449Z" fill="#7C6A0A"/>
</svg>
