<svg width="38" height="39" viewBox="0 0 38 39" fill="none" xmlns="http://www.w3.org/2000/svg">
<path d="M2.5625 2.8125H6.27083L7.0125 6.52083M7.0125 6.52083H35.9375L28.5208 21.3542H9.97917M7.0125 6.52083L9.97917 21.3542M9.97917 21.3542L5.72756 25.6058C4.55944 26.7739 5.3864 28.7708 7.03846 28.7708H28.5208M28.5208 28.7708C27.5373 28.7708 26.5941 29.1615 25.8986 29.857C25.2032 30.5524 24.8125 31.4957 24.8125 32.4792C24.8125 33.4627 25.2032 34.4059 25.8986 35.1014C26.5941 35.7968 27.5373 36.1875 28.5208 36.1875C29.5043 36.1875 30.4476 35.7968 31.143 35.1014C31.8385 34.4059 32.2292 33.4627 32.2292 32.4792C32.2292 31.4957 31.8385 30.5524 31.143 29.857C30.4476 29.1615 29.5043 28.7708 28.5208 28.7708ZM13.6875 32.4792C13.6875 33.4627 13.2968 34.4059 12.6014 35.1014C11.9059 35.7968 10.9627 36.1875 9.97917 36.1875C8.99566 36.1875 8.05243 35.7968 7.35698 35.1014C6.66153 34.4059 6.27083 33.4627 6.27083 32.4792C6.27083 31.4957 6.66153 30.5524 7.35698 29.857C8.05243 29.1615 8.99566 28.7708 9.97917 28.7708C10.9627 28.7708 11.9059 29.1615 12.6014 29.857C13.2968 30.5524 13.6875 31.4957 13.6875 32.4792Z" stroke="#7C6A0A" stroke-width="3.70833" stroke-linecap="round" stroke-linejoin="round"/>
</svg>
