<svg width="41" height="36" viewBox="0 0 41 36" fill="none" xmlns="http://www.w3.org/2000/svg">
<path d="M2.82437 7.87993C3.28609 6.76525 3.96285 5.75242 4.816 4.89928C5.66914 4.04613 6.68196 3.36937 7.79665 2.90765C8.91134 2.44593 10.1061 2.20828 11.3126 2.20828C12.5191 2.20828 13.7138 2.44593 14.8285 2.90765C15.9432 3.36937 16.956 4.04613 17.8092 4.89928L20.5001 7.5902L23.191 4.89928C24.914 3.17628 27.2509 2.20831 29.6876 2.20831C32.1243 2.20831 34.4612 3.17628 36.1842 4.89928C37.9072 6.62228 38.8751 8.95917 38.8751 11.3959C38.8751 13.8326 37.9072 16.1694 36.1842 17.8924L20.5001 33.5765L4.816 17.8924C3.96285 17.0393 3.28609 16.0265 2.82437 14.9118C2.36265 13.7971 2.125 12.6024 2.125 11.3959C2.125 10.1893 2.36265 8.99462 2.82437 7.87993Z" stroke="#7C6A0A" stroke-width="4.08333" stroke-linecap="round" stroke-linejoin="round"/>
</svg>
