<svg width="164" height="164" viewBox="0 0 164 164" fill="none" xmlns="http://www.w3.org/2000/svg">
<path d="M158.647 55.9394H143.119C141.394 51.8874 139.268 48.018 136.773 44.3889C135.689 42.8129 134.542 41.2947 133.333 39.834C134.522 37.2139 134.983 33.9179 134.698 29.978C134.659 29.4383 134.426 28.9308 134.042 28.5494C133.658 28.1679 133.149 27.9381 132.609 27.9024C128.548 27.6109 125.175 28.1074 122.519 29.3822C115.457 23.9448 107.373 19.982 98.7491 17.7293C99.2265 15.4386 99.3657 13.0903 99.1623 10.7593C99.1236 10.2216 98.8925 9.7158 98.5113 9.3346C98.1301 8.9534 97.6243 8.72231 97.0866 8.68365C90.7188 8.2256 86.0359 9.70545 83.1658 13.0815C82.7269 13.5952 82.3365 14.1485 81.9999 14.7344C81.6638 14.1452 81.2734 13.5886 80.834 13.0719C77.9512 9.69584 73.2842 8.21599 66.9132 8.67404C66.3755 8.7127 65.8697 8.94379 65.4885 9.32499C65.1073 9.70619 64.8762 10.212 64.8376 10.7497C64.6332 13.0731 64.7714 15.414 65.2476 17.6972C63.3257 18.1927 61.4358 18.7746 59.578 19.4429C52.3971 22.035 45.7136 25.8388 39.8179 30.6891C36.9351 28.4469 32.8287 27.5148 27.5788 27.8928C27.0411 27.9314 26.5353 28.1625 26.1541 28.5437C25.7729 28.9249 25.5418 29.4307 25.5032 29.9684C25.1092 35.4137 26.1438 39.6226 28.5558 42.5247C20.9372 52.8507 16.4696 65.1608 15.692 77.9696C14.9145 90.7784 17.8603 103.539 24.1739 114.71C26.9919 119.675 30.4368 124.257 34.4239 128.343H27.0279C24.9737 128.345 23.0043 129.162 21.5518 130.615C20.0992 132.068 19.2821 134.037 19.2795 136.091C19.2795 136.957 18.9356 137.787 18.3235 138.399C17.7114 139.011 16.8812 139.355 16.0155 139.355H4.93591C4.34125 139.355 3.77094 139.591 3.35045 140.012C2.92996 140.432 2.69373 141.003 2.69373 141.597C2.69373 142.192 2.92996 142.762 3.35045 143.183C3.77094 143.603 4.34125 143.84 4.93591 143.84H16.0155C18.0694 143.837 20.0385 143.02 21.4905 141.567C22.9425 140.114 23.759 138.145 23.7607 136.091C23.7615 135.226 24.1057 134.396 24.7176 133.784C25.3295 133.172 26.1593 132.828 27.0247 132.827H39.2286C51.15 142.88 66.2358 148.405 81.8301 148.43H81.9999C90.872 148.46 99.6588 146.698 107.833 143.249C116.007 139.8 123.401 134.735 129.57 128.359C132.046 125.818 134.316 123.083 136.357 120.181C142.38 111.594 146.289 101.705 147.764 91.32C149.239 80.9351 148.239 70.3486 144.845 60.4237H158.647C159.242 60.4237 159.812 60.1875 160.233 59.767C160.653 59.3465 160.89 58.7762 160.89 58.1815C160.89 57.5869 160.653 57.0166 160.233 56.5961C159.812 56.1756 159.242 55.9394 158.647 55.9394ZM127.404 40.4683C125.204 42.3517 122.106 42.4382 120.3 42.2908C120.156 40.4875 120.242 37.3965 122.103 35.2055C123.727 33.2837 126.472 32.3227 130.284 32.3227C130.265 36.1056 129.297 38.8443 127.404 40.4683ZM86.5804 15.9868C88.2044 14.0649 90.9494 13.104 94.7612 13.104C94.7419 16.9029 93.7746 19.6447 91.8783 21.2655C89.6874 23.1329 86.5836 23.2226 84.777 23.0625C84.6329 21.2687 84.7194 18.1777 86.5804 15.9868ZM77.4034 15.9676C79.2869 18.1681 79.3733 21.2687 79.2228 23.0721C77.4162 23.2194 74.3188 23.1329 72.1183 21.2495C70.2252 19.6287 69.2579 16.8869 69.2355 13.0879C73.0312 13.1072 75.7794 14.0713 77.4034 15.9676ZM55.4268 32.3035C55.4076 36.1024 54.4434 38.8411 52.544 40.4651C50.3434 42.3517 47.2428 42.435 45.4394 42.2876C45.2921 40.4811 45.3754 37.3836 47.2588 35.1831C48.886 33.2901 51.6279 32.3227 55.414 32.3067L55.4268 32.3035ZM38.069 35.1863C39.9525 37.3836 40.039 40.4843 39.8916 42.2876C38.0883 42.435 34.994 42.3485 32.8031 40.4843C30.8812 38.8635 29.9203 36.1152 29.9203 32.3067C33.7032 32.3259 36.4451 33.2901 38.069 35.1863ZM37.4284 98.5794C37.4956 99.0837 37.5288 99.592 37.5277 100.101C37.5161 102.889 36.5041 105.579 34.6759 107.684C32.8476 109.788 30.3247 111.167 27.566 111.568C23.3597 103.813 20.8554 95.2502 20.2202 86.4508C19.585 77.6514 20.8335 68.8178 23.8824 60.539C27.1447 59.6244 30.6125 59.7632 33.7913 60.9356C36.9701 62.108 39.6976 64.2541 41.5848 67.068C43.4719 69.8819 44.4224 73.2198 44.3007 76.6057C44.179 79.9916 42.9913 83.2527 40.907 85.9238C39.5226 87.7003 38.5029 89.7329 37.9065 91.9048C37.3101 94.0766 37.1487 96.3449 37.4316 98.5794H37.4284ZM85.4048 143.852C85.4048 143.612 85.4048 143.426 85.4048 143.33C85.4065 140.809 86.4085 138.391 88.1908 136.607C89.9731 134.824 92.3903 133.82 94.9117 133.817C98.6433 133.817 101.34 135.867 102.948 137.59C103.56 138.249 104.112 138.961 104.598 139.717C98.4622 142.112 91.9824 143.508 85.4048 143.852ZM143.942 82.1697C143.935 94.857 140.006 107.232 132.693 117.6C126.45 126.475 118.001 133.569 108.179 138.183C107.489 137.033 106.68 135.959 105.764 134.98C102.756 131.761 98.906 129.986 94.9181 129.986C91.3778 129.991 87.984 131.4 85.4811 133.904C82.9783 136.408 81.5709 139.803 81.5675 143.343C81.5675 143.449 81.5675 143.663 81.5675 143.952C70.5501 143.879 59.7519 140.866 50.289 135.223C49.0269 134.467 47.7959 133.669 46.5958 132.827H54.5876C55.1822 132.827 55.7525 132.591 56.173 132.17C56.5935 131.75 56.8298 131.18 56.8298 130.585C56.8298 129.99 56.5935 129.42 56.173 129C55.7525 128.579 55.1822 128.343 54.5876 128.343H40.9102C36.5466 124.471 32.749 120.005 29.6288 115.075C33.3169 114.168 36.5409 111.933 38.6838 108.797C40.8267 105.661 41.738 101.845 41.2433 98.0797C41.0235 96.349 41.1484 94.5919 41.6107 92.9097C42.0731 91.2275 42.8637 89.6534 43.9372 88.2781C46.2843 85.271 47.7193 81.6536 48.0717 77.8553C48.4242 74.0571 47.6794 70.2374 45.9258 66.8498C44.1721 63.4621 41.4832 60.6488 38.1783 58.7439C34.8734 56.8389 31.0913 55.9222 27.2809 56.1027C26.7332 56.1283 26.1887 56.1796 25.6473 56.2501C27.3993 52.4015 29.5462 48.7452 32.0536 45.3402C34.1406 46.3545 36.4376 46.8616 38.7577 46.8201C39.1837 46.8201 39.5841 46.8201 39.9557 46.7816V54.5268C39.9557 55.1214 40.1919 55.6917 40.6124 56.1122C41.0329 56.5327 41.6032 56.769 42.1979 56.769C42.7925 56.769 43.3628 56.5327 43.7833 56.1122C44.2038 55.6917 44.4401 55.1214 44.4401 54.5268V46.6951C45.1598 46.7791 45.8839 46.8208 46.6086 46.8201C49.1711 46.8201 52.6497 46.2819 55.4492 43.902C58.8253 41.0192 60.3051 36.3458 59.8439 29.978C59.8053 29.4408 59.5747 28.9355 59.1941 28.5543C58.8136 28.1732 58.3086 27.9418 57.7715 27.9024C55.6162 27.7186 53.446 27.8198 51.3172 28.2035C54.4409 26.4096 57.7165 24.894 61.1059 23.6743C63.0118 22.9888 64.9497 22.393 66.91 21.9158C67.5342 22.9589 68.3239 23.8936 69.2483 24.6833C72.0478 27.0632 75.5168 27.6013 78.0921 27.6013C78.7103 27.6013 79.2805 27.5725 79.7737 27.5276V35.308C79.7737 35.9027 80.01 36.473 80.4305 36.8935C80.851 37.314 81.4212 37.5502 82.0159 37.5502C82.6106 37.5502 83.1809 37.314 83.6014 36.8935C84.0219 36.473 84.2581 35.9027 84.2581 35.308V27.5276C84.7514 27.5725 85.3215 27.6013 85.9397 27.6013C88.5023 27.6013 91.9841 27.0632 94.7836 24.6833C95.7006 23.8985 96.4857 22.9717 97.1091 21.9382C104.94 23.9103 112.31 27.392 118.807 32.1882L118.705 32.3035C118.26 32.8155 117.864 33.3677 117.523 33.9531C117.186 33.3639 116.796 32.8074 116.357 32.2907C113.474 28.9146 108.804 27.4347 102.436 27.8928C101.898 27.9314 101.392 28.1625 101.011 28.5437C100.63 28.9249 100.399 29.4307 100.36 29.9684C99.899 36.3362 101.379 41.0224 104.755 43.8924C107.554 46.2723 111.023 46.8104 113.596 46.8104C114.195 46.8104 114.739 46.7816 115.22 46.74V54.5172C115.22 55.1118 115.456 55.6821 115.876 56.1026C116.297 56.5231 116.867 56.7594 117.462 56.7594C118.056 56.7594 118.627 56.5231 119.047 56.1026C119.468 55.6821 119.704 55.1118 119.704 54.5172V46.74C120.213 46.788 120.803 46.8201 121.446 46.8201C124.009 46.8201 127.491 46.2819 130.29 43.902C130.399 43.8091 130.502 43.7098 130.611 43.6105C131.463 44.6868 132.286 45.7919 133.067 46.9322C135.033 49.7846 136.755 52.7977 138.215 55.9394H131.088C129.034 55.9419 127.066 56.7587 125.614 58.2107C124.162 59.6626 123.345 61.6311 123.343 63.6845C123.341 64.5494 122.996 65.3783 122.385 65.9895C121.773 66.6007 120.944 66.9444 120.079 66.9453H108.996C108.401 66.9453 107.831 67.1815 107.41 67.602C106.99 68.0225 106.754 68.5928 106.754 69.1875C106.754 69.7821 106.99 70.3525 107.41 70.7729C107.831 71.1934 108.401 71.4297 108.996 71.4297H120.079C122.133 71.4271 124.102 70.61 125.555 69.1574C127.007 67.7049 127.824 65.7355 127.827 63.6813C127.829 62.817 128.173 61.9886 128.784 61.3775C129.395 60.7663 130.224 60.4222 131.088 60.4205H140.085C142.665 67.3802 143.972 74.7474 143.942 82.1697ZM114.745 42.2812C112.939 42.4286 109.841 42.3421 107.641 40.4586C105.745 38.8347 104.781 36.096 104.758 32.2971C108.557 32.3163 111.299 33.2804 112.923 35.1799C114.81 37.3869 114.896 40.4875 114.745 42.2812Z" fill="#7C6A0A"/>
<path d="M101.164 80.6101C98.7802 80.6126 96.4944 81.5606 94.8083 83.2462C93.1221 84.9317 92.1733 87.2172 92.1699 89.6013C92.1699 90.2809 92.4399 90.9327 92.9205 91.4132C93.401 91.8938 94.0528 92.1638 94.7324 92.1638C95.412 92.1638 96.0638 91.8938 96.5444 91.4132C97.0249 90.9327 97.2949 90.2809 97.2949 89.6013C97.3239 88.5948 97.7441 87.6392 98.4663 86.9375C99.1885 86.2358 100.156 85.8432 101.163 85.8432C102.17 85.8432 103.137 86.2358 103.859 86.9375C104.581 87.6392 105.001 88.5948 105.03 89.6013C105.03 90.2809 105.3 90.9327 105.781 91.4132C106.262 91.8938 106.913 92.1638 107.593 92.1638C108.273 92.1638 108.924 91.8938 109.405 91.4132C109.885 90.9327 110.155 90.2809 110.155 89.6013C110.153 87.2175 109.205 84.932 107.519 83.2464C105.834 81.5608 103.548 80.6127 101.164 80.6101Z" fill="#7C6A0A"/>
<path d="M92.1505 100.111C91.4709 100.111 90.8191 100.381 90.3386 100.861C89.858 101.342 89.588 101.993 89.588 102.673C89.588 104.976 88.6732 107.185 87.0447 108.813C85.4162 110.442 83.2074 111.357 80.9044 111.357C78.6013 111.357 76.3926 110.442 74.7641 108.813C73.1356 107.185 72.2207 104.976 72.2207 102.673C72.2207 101.993 71.9507 101.342 71.4702 100.861C70.9896 100.381 70.3378 100.111 69.6582 100.111C68.9786 100.111 68.3268 100.381 67.8462 100.861C67.3657 101.342 67.0957 101.993 67.0957 102.673C67.0957 106.335 68.5505 109.848 71.1402 112.437C73.7298 115.027 77.2421 116.482 80.9044 116.482C84.5667 116.482 88.079 115.027 90.6686 112.437C93.2582 109.848 94.713 106.335 94.713 102.673C94.713 101.993 94.4431 101.342 93.9625 100.861C93.482 100.381 92.8302 100.111 92.1505 100.111Z" fill="#7C6A0A"/>
<path d="M69.7097 89.6013C69.6652 87.2456 68.6982 85.0015 67.0166 83.3513C65.335 81.7011 63.073 80.7766 60.7169 80.7766C58.3608 80.7766 56.0988 81.7011 54.4172 83.3513C52.7356 85.0015 51.7686 87.2456 51.7241 89.6013C51.7241 90.2809 51.9941 90.9327 52.4747 91.4132C52.9552 91.8938 53.607 92.1638 54.2866 92.1638C54.9662 92.1638 55.618 91.8938 56.0986 91.4132C56.5791 90.9327 56.8491 90.2809 56.8491 89.6013C56.8781 88.5947 57.2983 87.6391 58.0205 86.9374C58.7427 86.2357 59.7099 85.8432 60.7169 85.8432C61.7238 85.8432 62.6911 86.2357 63.4133 86.9374C64.1355 87.6391 64.5557 88.5947 64.5847 89.6013C64.5847 90.2809 64.8546 90.9327 65.3352 91.4132C65.8158 91.8938 66.4676 92.1638 67.1472 92.1638C67.8268 92.1638 68.4786 91.8938 68.9591 91.4132C69.4397 90.9327 69.7097 90.2809 69.7097 89.6013Z" fill="#7C6A0A"/>
<path d="M149.666 146.274C146.063 144.781 145.3 144.016 143.82 140.415C143.566 139.801 143.135 139.276 142.582 138.906C142.029 138.537 141.378 138.34 140.713 138.34C140.048 138.34 139.398 138.537 138.845 138.906C138.292 139.276 137.861 139.801 137.606 140.415C136.114 144.016 135.348 144.781 131.748 146.274C131.133 146.529 130.608 146.96 130.239 147.513C129.869 148.066 129.672 148.716 129.672 149.381C129.672 150.046 129.869 150.696 130.239 151.249C130.608 151.802 131.133 152.233 131.748 152.488C135.271 153.945 136.146 154.823 137.603 158.343C137.857 158.959 138.288 159.485 138.842 159.855C139.395 160.225 140.046 160.423 140.712 160.423C141.378 160.423 142.028 160.225 142.582 159.855C143.135 159.485 143.566 158.959 143.82 158.343C145.278 154.82 146.155 153.942 149.676 152.485C150.29 152.23 150.815 151.799 151.185 151.246C151.554 150.693 151.751 150.043 151.751 149.378C151.751 148.713 151.554 148.063 151.185 147.51C150.815 146.957 150.29 146.525 149.676 146.271L149.666 146.274ZM140.697 155.848C139.16 152.475 137.603 150.919 134.23 149.381C137.638 147.837 139.15 146.325 140.697 142.914C142.241 146.325 143.753 147.837 147.164 149.381C143.798 150.919 142.238 152.469 140.704 155.848H140.697Z" fill="#7C6A0A"/>
<path d="M8.85047 19.1994C12.3739 20.6568 13.2484 21.5313 14.7058 25.0547C14.9604 25.6691 15.3915 26.1943 15.9445 26.5637C16.4976 26.9332 17.1477 27.1304 17.8128 27.1304C18.4779 27.1304 19.1281 26.9332 19.6811 26.5637C20.2341 26.1943 20.6652 25.6691 20.9198 25.0547C22.3805 21.5313 23.2549 20.6568 26.7784 19.1994C27.3925 18.9441 27.9173 18.5126 28.2865 17.9594C28.6557 17.4061 28.8527 16.7559 28.8527 16.0908C28.8527 15.4257 28.6557 14.7754 28.2865 14.2222C27.9173 13.6689 27.3925 13.2374 26.7784 12.9821C23.178 11.4927 22.4125 10.74 20.923 7.12684C20.6678 6.51266 20.2363 5.98787 19.683 5.61869C19.1298 5.24951 18.4795 5.05249 17.8144 5.05249C17.1493 5.05249 16.4991 5.24951 15.9458 5.61869C15.3926 5.98787 14.9611 6.51266 14.7058 7.12684C13.2163 10.7271 12.4636 11.4927 8.85047 12.9821C8.23629 13.2374 7.7115 13.6689 7.34232 14.2222C6.97314 14.7754 6.77612 15.4257 6.77612 16.0908C6.77612 16.7559 6.97314 17.4061 7.34232 17.9594C7.7115 18.5126 8.23629 18.9441 8.85047 19.1994ZM17.8192 9.62527C19.3599 13.0366 20.8718 14.5453 24.2799 16.0924C20.907 17.6171 19.3503 19.1866 17.8128 22.5595C16.2785 19.1866 14.7346 17.6171 11.3457 16.0924C14.757 14.5453 16.2689 13.0366 17.8128 9.62527H17.8192Z" fill="#7C6A0A"/>
</svg>
