<svg width="43" height="43" viewBox="0 0 43 43" fill="none" xmlns="http://www.w3.org/2000/svg">
<path d="M6.88212 33.8335C11.3413 31.3131 16.3779 29.9922 21.5 30C26.8125 30 31.7999 31.3919 36.1179 33.8335M27.875 17.25C27.875 18.9408 27.2034 20.5623 26.0078 21.7578C24.8123 22.9534 23.1908 23.625 21.5 23.625C19.8092 23.625 18.1877 22.9534 16.9922 21.7578C15.7966 20.5623 15.125 18.9408 15.125 17.25C15.125 15.5592 15.7966 13.9377 16.9922 12.7422C18.1877 11.5466 19.8092 10.875 21.5 10.875C23.1908 10.875 24.8123 11.5466 26.0078 12.7422C27.2034 13.9377 27.875 15.5592 27.875 17.25ZM40.625 21.5C40.625 24.0115 40.1303 26.4985 39.1692 28.8188C38.2081 31.1392 36.7993 33.2475 35.0234 35.0234C33.2475 36.7993 31.1392 38.2081 28.8188 39.1692C26.4985 40.1303 24.0115 40.625 21.5 40.625C18.9885 40.625 16.5015 40.1303 14.1812 39.1692C11.8608 38.2081 9.7525 36.7993 7.97658 35.0234C6.20066 33.2475 4.79192 31.1392 3.8308 28.8188C2.86968 26.4985 2.375 24.0115 2.375 21.5C2.375 16.4277 4.38995 11.5632 7.97658 7.97658C11.5632 4.38995 16.4277 2.375 21.5 2.375C26.5723 2.375 31.4368 4.38995 35.0234 7.97658C38.61 11.5632 40.625 16.4277 40.625 21.5Z" stroke="#7C6A0A" stroke-width="4.25" stroke-linecap="round" stroke-linejoin="round"/>
</svg>
